<?xml version="1.0" encoding="UTF-8"?>
<svg version="1.1" xmlns="http://www.w3.org/2000/svg" width="500" height="500">
<path d="M0 0 C1.04897461 0.31227539 2.09794922 0.62455078 3.17871094 0.94628906 C20.7736945 6.27629487 38.32085941 13.71447101 53.1875 24.75 C53.1875 25.41 53.1875 26.07 53.1875 26.75 C53.89261719 26.98460937 54.59773438 27.21921875 55.32421875 27.4609375 C67.82069145 33.08690747 82.55203939 48.48156125 90.1875 59.75 C90.1875 60.41 90.1875 61.07 90.1875 61.75 C90.8475 61.75 91.5075 61.75 92.1875 61.75 C96.1875 67.16176471 96.1875 67.16176471 96.1875 69.75 C96.8475 69.75 97.5075 69.75 98.1875 69.75 C99.4765625 71.39453125 99.4765625 71.39453125 100.8125 73.5625 C101.25851562 74.27019531 101.70453125 74.97789062 102.1640625 75.70703125 C103.1875 77.75 103.1875 77.75 103.1875 80.75 C103.8475 80.75 104.5075 80.75 105.1875 80.75 C111.83380705 92.76362733 117.72342788 104.7544077 122.1875 117.75 C122.46078125 118.54519043 122.7340625 119.34038086 123.015625 120.15966797 C134.55661028 154.46279697 136.25615614 194.86320354 126.1875 229.75 C125.98141113 230.46881348 125.77532227 231.18762695 125.56298828 231.92822266 C118.79947873 254.88975584 108.16121761 276.64979348 93.12109375 295.30859375 C91.18824863 297.57788759 91.18824863 297.57788759 90.1875 299.75 C89.5275 299.75 88.8675 299.75 88.1875 299.75 C87.8471875 300.5853125 87.8471875 300.5853125 87.5 301.4375 C85.81382969 304.40837149 83.63362884 306.35822958 81.1875 308.75 C79.35079019 310.87567493 77.53711826 313.01797454 75.73828125 315.17578125 C75.22652344 315.69527344 74.71476562 316.21476562 74.1875 316.75 C73.5275 316.75 72.8675 316.75 72.1875 316.75 C72.1875 317.41 72.1875 318.07 72.1875 318.75 C66.71130952 323.75 66.71130952 323.75 64.1875 323.75 C64.1875 324.41 64.1875 325.07 64.1875 325.75 C62.5375 326.41 60.8875 327.07 59.1875 327.75 C59.1875 328.41 59.1875 329.07 59.1875 329.75 C57.10546875 331.4765625 57.10546875 331.4765625 54.375 333.375 C53.03501953 334.32246094 53.03501953 334.32246094 51.66796875 335.2890625 C49.1875 336.75 49.1875 336.75 46.1875 336.75 C46.1875 337.41 46.1875 338.07 46.1875 338.75 C36.25503567 344.84234354 26.09349362 349.54516471 15.29589844 353.88916016 C13.35569271 354.68132845 11.43731557 355.51081857 9.51953125 356.35546875 C-30.39062027 373.05877953 -79.69170565 367.83747991 -118.80932617 352.20214844 C-126.56100414 348.98570674 -133.74577055 345.2953759 -140.8125 340.75 C-141.50118164 340.31848633 -142.18986328 339.88697266 -142.89941406 339.44238281 C-162.3240942 327.23719464 -180.00749875 312.17604377 -193.8125 293.75 C-194.45574219 292.91210938 -195.09898437 292.07421875 -195.76171875 291.2109375 C-226.9097943 249.72096653 -237.04733537 199.05325677 -230.16748047 148.09326172 C-226.5731346 124.36662373 -217.13979145 101.20650924 -204.8125 80.75 C-204.28140625 79.83863281 -203.7503125 78.92726563 -203.203125 77.98828125 C-198.28776794 69.84874196 -192.21287921 62.6575451 -186.12182617 55.38476562 C-184.93511648 53.90309341 -183.86550047 52.3295007 -182.8125 50.75 C-182.1525 50.75 -181.4925 50.75 -180.8125 50.75 C-180.8125 50.09 -180.8125 49.43 -180.8125 48.75 C-180.1525 48.75 -179.4925 48.75 -178.8125 48.75 C-178.8125 48.09 -178.8125 47.43 -178.8125 46.75 C-177.37890625 45.3046875 -177.37890625 45.3046875 -175.375 43.625 C-172.28599709 41.00535089 -169.2498014 38.34646932 -166.25 35.625 C-156.26994163 26.75 -156.26994163 26.75 -152.8125 26.75 C-152.8125 26.09 -152.8125 25.43 -152.8125 24.75 C-106.33624115 -2.9201438 -53.30662376 -15.91008417 0 0 Z " fill="#F7F1E9" transform="translate(299.8125,66.25)"/>
<path d="M0 0 C31.80430164 -2.77045596 31.80430164 -2.77045596 38.765625 3.0703125 C41.6469701 6.33021055 43.77821259 9.97023455 45.79052734 13.81494141 C47.71793453 17.29703554 50.22603049 20.25090306 52.75 23.3125 C53.65658735 24.46514039 54.56031514 25.6200366 55.4609375 26.77734375 C59.23132529 31.58026825 63.12179168 36.28409868 67 41 C73.95193108 49.4778538 80.81613217 57.99948241 87.46875 66.71484375 C93.74492673 74.9012695 100.26639536 82.90389299 106.8125 90.875 C111.68527672 96.80899851 116.39702483 102.85497219 121 109 C121.02347152 100.64424426 121.04108827 92.28850295 121.05181217 83.93272209 C121.0569666 80.05018806 121.06392355 76.16767704 121.07543945 72.28515625 C121.16126499 50.78977829 121.16126499 50.78977829 120.578125 29.3046875 C120.52356895 28.02922562 120.52356895 28.02922562 120.46791077 26.72799683 C120.12883864 20.1638662 119.70321514 13.05353197 117 7 C113.73992447 4.78455082 109.77057675 3.92655502 106.0234375 2.78125 C104 2 104 2 102 0 C117.51 0 133.02 0 149 0 C147 2 147 2 143.6875 2.75 C138.64284936 4.46005106 136.40244854 7.19510292 134 12 C133.90646324 15.05140373 133.87428237 18.0798561 133.88647461 21.13134766 C133.88625557 22.55093025 133.88625557 22.55093025 133.8860321 23.99919128 C133.88673058 27.13750475 133.89451998 30.27575937 133.90234375 33.4140625 C133.90420816 35.58596769 133.90563195 37.75787329 133.90663147 39.92977905 C133.91045484 45.65414587 133.92028361 51.37848742 133.93133545 57.10284424 C133.94155343 62.94095518 133.94612992 68.7790702 133.95117188 74.6171875 C133.96190602 86.07813611 133.9789803 97.53906596 134 109 C134.81694336 108.17725586 135.63388672 107.35451172 136.47558594 106.50683594 C137.56178147 105.41594842 138.64804826 104.32513185 139.734375 103.234375 C140.2711084 102.69345215 140.8078418 102.1525293 141.36083984 101.59521484 C144.82104498 98.12444419 148.37682167 94.83710717 152.1171875 91.66796875 C155.01405014 89.10166097 157.66779472 86.30492467 160.3359375 83.50390625 C162 82 162 82 164 82 C164.33 81.01 164.66 80.02 165 79 C166.6015625 77.38671875 166.6015625 77.38671875 168.625 75.6875 C169.70587891 74.76904297 169.70587891 74.76904297 170.80859375 73.83203125 C171.53175781 73.22746094 172.25492188 72.62289062 173 72 C174.23091153 70.96039578 175.46020691 69.91887346 176.6875 68.875 C177.20699219 68.43929687 177.72648438 68.00359375 178.26171875 67.5546875 C180.60172257 65.46183015 182.78185659 63.22140539 185 61 C186.43279297 59.67162109 186.43279297 59.67162109 187.89453125 58.31640625 C188.86726079 57.39851516 189.83991664 56.48054598 190.8125 55.5625 C191.31458984 55.11068359 191.81667969 54.65886719 192.33398438 54.19335938 C194.99311598 51.64276376 195.96346581 50.37722654 196.32421875 46.65234375 C196.16373047 45.33943359 196.16373047 45.33943359 196 44 C193.36 43.01 190.72 42.02 188 41 C188 40.34 188 39.68 188 39 C200.87 39 213.74 39 227 39 C227 39.66 227 40.32 227 41 C226.23816406 41.21914062 225.47632813 41.43828125 224.69140625 41.6640625 C217.56352532 43.85314953 211.90945194 46.47361128 206 51 C205.21109375 51.598125 204.4221875 52.19625 203.609375 52.8125 C198.03192514 57.16220932 192.79314358 61.83767225 187.58984375 66.625 C185.39705575 68.63588251 183.18281317 70.61083946 180.9375 72.5625 C176.23829957 76.64917736 171.62263506 80.82717224 167 85 C165.12525472 86.68778298 163.25026338 88.37529269 161.375 90.0625 C160.11816406 91.19365234 160.11816406 91.19365234 158.8359375 92.34765625 C158.23007812 92.89292969 157.62421875 93.43820313 157 94 C160.79044134 100.0976665 165.42463159 105.48156049 170 111 C171.50140678 112.83218143 173.00142962 114.66549791 174.5 116.5 C176.70228166 119.19209947 178.90488636 121.88392614 181.109375 124.57421875 C184.43930918 128.63941212 187.76552831 132.70729439 191.0703125 136.79296875 C192.17179028 138.15371442 193.27335436 139.51439023 194.375 140.875 C194.92285156 141.55224121 195.47070312 142.22948242 196.03515625 142.92724609 C200.15559384 148.00386759 204.35818095 153.0045631 208.66162109 157.92724609 C210.70610678 160.29946786 211.99705511 161.99116534 213 165 C214.31403276 165.70394612 215.6520257 166.36345658 217 167 C218.2065625 167.99 218.2065625 167.99 219.4375 169 C224.01728995 172.57447021 228.28576189 173.32773669 234 174 C234 174.99 234 175.98 234 177 C229.07519078 177.34954968 224.15775083 177.60151685 219.22338867 177.76904297 C217.55121073 177.83891158 215.87987174 177.93406951 214.21069336 178.05615234 C200.76534397 179.01394736 200.76534397 179.01394736 196.18389893 175.67736816 C192.92051715 172.42014941 190.44823458 168.7275584 188.09294128 164.78207397 C186.41131884 162.04013749 184.46148396 159.54805759 182.5 157 C181.77941406 156.03320312 181.05882812 155.06640625 180.31640625 154.0703125 C175.96940429 148.30851901 171.483002 142.65620572 167 137 C166.34515625 136.17113281 165.6903125 135.34226562 165.015625 134.48828125 C161.86033216 130.51719688 158.66171896 126.58457695 155.4296875 122.67578125 C154.79393799 121.90661377 154.15818848 121.13744629 153.50317383 120.3449707 C152.22369209 118.79893698 150.94232091 117.25446472 149.65893555 115.71166992 C149.07152588 115.00244385 148.48411621 114.29321777 147.87890625 113.5625 C147.3485376 112.92441406 146.81816895 112.28632813 146.27172852 111.62890625 C145 110 145 110 144 108 C140.08616118 109.59452693 137.61138723 111.67767592 135 115 C134.27977854 118.34089952 134.34621579 121.60923665 134.40625 125.015625 C134.40620972 125.98602722 134.40616943 126.95642944 134.40612793 127.95623779 C134.41148127 130.00718669 134.42905603 132.05813519 134.45800781 134.10888672 C134.49967359 137.22558379 134.49908881 140.34010394 134.4921875 143.45703125 C134.50268785 145.455744 134.51563048 147.4544457 134.53125 149.453125 C134.53145142 150.37530823 134.53165283 151.29749146 134.53186035 152.24761963 C134.63828196 158.16075463 135.34772207 163.63894824 138 169 C141.97484095 172.52315448 145.94642924 173.78714302 151 175 C151 175.66 151 176.32 151 177 C134.83 177 118.66 177 102 177 C102.33 176.01 102.66 175.02 103 174 C104.97394438 173.53941298 106.94875886 173.08189996 108.9296875 172.65234375 C112.23491606 171.61088494 113.88928988 169.6694275 116 167 C120.12498072 158.19579904 119.84359242 146.38190322 118 137 C115.45357766 131.28189298 111.12856283 127.04184104 106.70117188 122.72167969 C104.14927002 120.13901437 102.0275278 117.29097292 99.875 114.375 C92.02700675 104.10057406 84.00975474 93.9754515 75.83447266 83.95947266 C72.36140508 79.69749177 68.94208071 75.39885984 65.5625 71.0625 C59.20176785 62.91039234 52.59281321 54.96452721 46 47 C41.00039703 40.94743853 36.07337551 34.84629896 31.23046875 28.66796875 C30.7252771 28.02420288 30.22008545 27.38043701 29.69958496 26.71716309 C28.46599578 25.14508463 27.23294245 23.57258572 26 22 C25.95356365 34.60489016 25.91807344 47.20975981 25.89637566 59.81471825 C25.88595937 65.6683391 25.87183956 71.52190122 25.84912109 77.37548828 C25.82731584 83.02946166 25.81541518 88.6833787 25.81024551 94.3373909 C25.80656353 96.48943594 25.79937366 98.64147807 25.78853989 100.79349899 C25.77392287 103.81861675 25.77202632 106.84350469 25.77294922 109.86865234 C25.76575867 110.74907196 25.75856812 111.62949158 25.75115967 112.53659058 C25.77995638 121.31737323 26.56565594 129.45107402 32.2890625 136.375 C36.12797717 140.02109247 40.83416705 141.21729804 46 142 C46 142.66 46 143.32 46 144 C31.15 144 16.3 144 1 144 C1 143.34 1 142.68 1 142 C1.66386719 141.85304688 2.32773438 141.70609375 3.01171875 141.5546875 C9.13082104 140.00034619 12.57098498 138.61111549 16 133 C20.33620141 123.61404506 20.13507198 113.03446849 20.24047852 102.88208008 C20.25347488 101.93747421 20.26647125 100.99286835 20.27986145 100.01963806 C20.40545101 90.26005957 20.4630538 80.49970416 20.51489258 70.73950195 C20.54174649 66.11565029 20.59066268 61.49281419 20.65844727 56.86938477 C20.74041858 51.26096387 20.78307377 45.65351816 20.79795647 40.04453087 C20.81018182 37.91583607 20.83616259 35.78717249 20.87640572 33.65882301 C21.47630582 22.42666669 21.47630582 22.42666669 18.29318237 11.96005249 C16.2870272 9.89840169 14.4724671 8.44981728 12 7 C11.37368179 6.57253983 10.74736359 6.14507965 10.10206604 5.70466614 C6.87110885 3.64255174 3.79822677 2.46039112 0 2 C0 1.34 0 0.68 0 0 Z " fill="#323130" transform="translate(138,161)"/>
<path d="M0 0 C1.04897461 0.31227539 2.09794922 0.62455078 3.17871094 0.94628906 C20.7736945 6.27629487 38.32085941 13.71447101 53.1875 24.75 C53.1875 25.41 53.1875 26.07 53.1875 26.75 C53.89261719 26.98460937 54.59773438 27.21921875 55.32421875 27.4609375 C67.82069145 33.08690747 82.55203939 48.48156125 90.1875 59.75 C90.1875 60.41 90.1875 61.07 90.1875 61.75 C90.8475 61.75 91.5075 61.75 92.1875 61.75 C96.1875 67.16176471 96.1875 67.16176471 96.1875 69.75 C96.8475 69.75 97.5075 69.75 98.1875 69.75 C99.4765625 71.39453125 99.4765625 71.39453125 100.8125 73.5625 C101.25851562 74.27019531 101.70453125 74.97789062 102.1640625 75.70703125 C103.1875 77.75 103.1875 77.75 103.1875 80.75 C103.8475 80.75 104.5075 80.75 105.1875 80.75 C111.83380705 92.76362733 117.72342788 104.7544077 122.1875 117.75 C122.46078125 118.54519043 122.7340625 119.34038086 123.015625 120.15966797 C134.55661028 154.46279697 136.25615614 194.86320354 126.1875 229.75 C125.98141113 230.46881348 125.77532227 231.18762695 125.56298828 231.92822266 C118.79947873 254.88975584 108.16121761 276.64979348 93.12109375 295.30859375 C91.18824863 297.57788759 91.18824863 297.57788759 90.1875 299.75 C89.5275 299.75 88.8675 299.75 88.1875 299.75 C87.8471875 300.5853125 87.8471875 300.5853125 87.5 301.4375 C85.81382969 304.40837149 83.63362884 306.35822958 81.1875 308.75 C79.35079019 310.87567493 77.53711826 313.01797454 75.73828125 315.17578125 C75.22652344 315.69527344 74.71476562 316.21476562 74.1875 316.75 C73.5275 316.75 72.8675 316.75 72.1875 316.75 C72.1875 317.41 72.1875 318.07 72.1875 318.75 C66.71130952 323.75 66.71130952 323.75 64.1875 323.75 C64.1875 324.41 64.1875 325.07 64.1875 325.75 C62.5375 326.41 60.8875 327.07 59.1875 327.75 C59.1875 328.41 59.1875 329.07 59.1875 329.75 C57.10546875 331.4765625 57.10546875 331.4765625 54.375 333.375 C53.03501953 334.32246094 53.03501953 334.32246094 51.66796875 335.2890625 C49.1875 336.75 49.1875 336.75 46.1875 336.75 C46.1875 337.41 46.1875 338.07 46.1875 338.75 C36.25503567 344.84234354 26.09349362 349.54516471 15.29589844 353.88916016 C13.35569271 354.68132845 11.43731557 355.51081857 9.51953125 356.35546875 C-30.39062027 373.05877953 -79.69170565 367.83747991 -118.80932617 352.20214844 C-126.56100414 348.98570674 -133.74577055 345.2953759 -140.8125 340.75 C-141.50118164 340.31848633 -142.18986328 339.88697266 -142.89941406 339.44238281 C-162.3240942 327.23719464 -180.00749875 312.17604377 -193.8125 293.75 C-194.45574219 292.91210938 -195.09898437 292.07421875 -195.76171875 291.2109375 C-226.9097943 249.72096653 -237.04733537 199.05325677 -230.16748047 148.09326172 C-226.5731346 124.36662373 -217.13979145 101.20650924 -204.8125 80.75 C-204.28140625 79.83863281 -203.7503125 78.92726563 -203.203125 77.98828125 C-198.28776794 69.84874196 -192.21287921 62.6575451 -186.12182617 55.38476562 C-184.93511648 53.90309341 -183.86550047 52.3295007 -182.8125 50.75 C-182.1525 50.75 -181.4925 50.75 -180.8125 50.75 C-180.8125 50.09 -180.8125 49.43 -180.8125 48.75 C-180.1525 48.75 -179.4925 48.75 -178.8125 48.75 C-178.8125 48.09 -178.8125 47.43 -178.8125 46.75 C-177.37890625 45.3046875 -177.37890625 45.3046875 -175.375 43.625 C-172.28599709 41.00535089 -169.2498014 38.34646932 -166.25 35.625 C-156.26994163 26.75 -156.26994163 26.75 -152.8125 26.75 C-152.8125 26.09 -152.8125 25.43 -152.8125 24.75 C-106.33624115 -2.9201438 -53.30662376 -15.91008417 0 0 Z M-86.8125 2.75 C-87.5338916 2.91628906 -88.2552832 3.08257812 -88.99853516 3.25390625 C-122.36004044 11.10880612 -150.19300528 28.21397594 -174.8125 51.75 C-175.43995117 52.34611084 -176.06740234 52.94222168 -176.71386719 53.55639648 C-181.55932967 58.26506372 -185.72106729 63.22369911 -189.6875 68.6875 C-190.59193848 69.93128418 -190.59193848 69.93128418 -191.51464844 71.20019531 C-219.27482574 109.91095824 -232.28859954 157.83295631 -225.125 205.1875 C-219.17792629 241.22884032 -203.88659489 273.3566559 -179.8125 300.75 C-178.74835196 302.04030926 -177.68550812 303.33169742 -176.625 304.625 C-173.95664754 307.72915787 -170.97406425 310.3709624 -167.85546875 313.015625 C-166.56834119 314.10832985 -165.29734238 315.22060962 -164.05078125 316.359375 C-127.73477193 349.44554401 -82.19864461 361.81364424 -34.00683594 359.97314453 C6.9610647 358.03081041 44.15994624 336.41106407 73.1875 308.75 C74.37279297 307.64398438 74.37279297 307.64398438 75.58203125 306.515625 C90.43565493 292.26030841 101.49885878 274.26411401 110.1875 255.75 C110.76757812 254.574375 110.76757812 254.574375 111.359375 253.375 C131.54455966 211.01920268 130.65152366 159.85587232 115.75 116.1875 C110.81659847 103.25102489 104.543578 91.44602755 97.1875 79.75 C96.70925781 78.96496094 96.23101562 78.17992187 95.73828125 77.37109375 C88.66218234 66.17258286 79.45258016 54.20635894 69.1875 45.75 C68.5275 45.75 67.8675 45.75 67.1875 45.75 C67.1875 45.09 67.1875 44.43 67.1875 43.75 C65.20579401 41.99119776 63.2218474 40.36238424 61.125 38.75 C60.4944873 38.26233154 59.86397461 37.77466309 59.21435547 37.2722168 C41.24982145 23.54024595 21.96845755 13.05642234 0.1953125 6.64453125 C-1.74890599 6.06631562 -3.68076091 5.44391364 -5.59375 4.76953125 C-30.30819378 -3.05870883 -61.6600288 -3.33885174 -86.8125 2.75 Z " fill="#464544" transform="translate(299.8125,66.25)"/>
<path d="M0 0 C12.28180316 32.36048135 16.94514463 63.3379132 14 98 C13.34 98 12.68 98 12 98 C11.896875 98.639375 11.79375 99.27875 11.6875 99.9375 C11.460625 100.618125 11.23375 101.29875 11 102 C9.515 102.495 9.515 102.495 8 103 C8.01047363 101.89301758 8.02094727 100.78603516 8.03173828 99.64550781 C8.30740364 67.62369484 7.8530851 37.87383779 -4.1171875 7.609375 C-5 5 -5 5 -5 1 C-3 0 -3 0 0 0 Z " fill="#434241" transform="translate(417,171)"/>
<path d="M0 0 C12.87 0 25.74 0 39 0 C39 0.66 39 1.32 39 2 C38.23816406 2.21914062 37.47632813 2.43828125 36.69140625 2.6640625 C29.56352532 4.85314953 23.90945194 7.47361128 18 12 C17.21109375 12.598125 16.4221875 13.19625 15.609375 13.8125 C10.03192514 18.16220932 4.79314358 22.83767225 -0.41015625 27.625 C-3.22039808 30.20211468 -6.08209714 32.71120369 -8.9609375 35.2109375 C-12.21161773 38.0630669 -15.40633983 40.97701022 -18.60546875 43.88671875 C-23.42859531 48.14334431 -23.42859531 48.14334431 -26 50 C-28.8125 49.75 -28.8125 49.75 -31 49 C-29.38405168 46.95880212 -27.7143618 44.95927063 -26 43 C-25.34 43 -24.68 43 -24 43 C-23.67 42.01 -23.34 41.02 -23 40 C-21.3984375 38.38671875 -21.3984375 38.38671875 -19.375 36.6875 C-18.65441406 36.07519531 -17.93382812 35.46289062 -17.19140625 34.83203125 C-16.46824219 34.22746094 -15.74507813 33.62289062 -15 33 C-13.76908847 31.96039578 -12.53979309 30.91887346 -11.3125 29.875 C-10.79300781 29.43929687 -10.27351563 29.00359375 -9.73828125 28.5546875 C-7.39827743 26.46183015 -5.21814341 24.22140539 -3 22 C-2.04480469 21.11441406 -1.08960938 20.22882813 -0.10546875 19.31640625 C0.86726079 18.39851516 1.83991664 17.48054598 2.8125 16.5625 C3.31458984 16.11068359 3.81667969 15.65886719 4.33398438 15.19335938 C6.99311598 12.64276376 7.96346581 11.37722654 8.32421875 7.65234375 C8.21722656 6.77707031 8.11023438 5.90179688 8 5 C5.36 4.01 2.72 3.02 0 2 C0 1.34 0 0.68 0 0 Z " fill="#333230" transform="translate(326,200)"/>
<path d="M0 0 C0.99 0 1.98 0 3 0 C3.29786535 4.36869177 2.84960712 7.90025642 1.6875 12.125 C-4.09957281 34.36389408 -4.73171349 57.3810058 -0.97998047 80.00952148 C0.30229508 87.82575616 0.30229508 87.82575616 -1 92 C-1.66 92 -2.32 92 -3 92 C-3.33 92.99 -3.66 93.98 -4 95 C-4.04898438 94.30132812 -4.09796875 93.60265625 -4.1484375 92.8828125 C-4.22320312 91.97273438 -4.29796875 91.06265625 -4.375 90.125 C-4.47941406 88.76761719 -4.47941406 88.76761719 -4.5859375 87.3828125 C-4.79568132 84.82058097 -4.79568132 84.82058097 -7 83 C-12.93258256 57.25552138 -10.93285503 25.4411943 -1 1 C-0.67 0.67 -0.34 0.34 0 0 Z " fill="#393937" transform="translate(77,193)"/>
<path d="M0 0 C0.66217529 0.0714624 1.32435059 0.1429248 2.0065918 0.21655273 C13.59568031 1.29458558 25.18482349 1.10983596 36.8125 1.0625 C38.9694 1.05747453 41.12630114 1.05291348 43.28320312 1.04882812 C48.52216053 1.03790651 53.76107484 1.02125158 59 1 C59 1.66 59 2.32 59 3 C59.99 3.66 60.98 4.32 62 5 C45.43473053 10.91616767 24.26659135 8.445335 7 7 C7 6.34 7 5.68 7 5 C5.3603125 5.061875 5.3603125 5.061875 3.6875 5.125 C0 5 0 5 -3 3 C-2.01 3 -1.02 3 0 3 C0 2.01 0 1.02 0 0 Z " fill="#393839" transform="translate(220,424)"/>
<path d="M0 0 C0.33 0.66 0.66 1.32 1 2 C0.67 2.66 0.34 3.32 0 4 C0.66 4 1.32 4 2 4 C1.62523172 9.24675595 0.78661517 12.78395631 -1.75390625 17.46484375 C-3.44864011 20.91275057 -4.78224176 24.4653711 -6.125 28.0625 C-6.37854248 28.73539063 -6.63208496 29.40828125 -6.89331055 30.1015625 C-8.46944915 34.35593992 -9.8047946 38.62327164 -11 43 C-11.495 41.515 -11.495 41.515 -12 40 C-13.485 40.495 -13.485 40.495 -15 41 C-16.24950052 43.55401848 -16.24950052 43.55401848 -17.1875 46.5625 C-17.53167969 47.57441406 -17.87585938 48.58632812 -18.23046875 49.62890625 C-18.48441406 50.41136719 -18.73835938 51.19382813 -19 52 C-20.42166001 47.73501996 -18.85627022 44.54879623 -17.5 40.4375 C-17.22736328 39.59703125 -16.95472656 38.7565625 -16.67382812 37.890625 C-6.24282765 6.24282765 -6.24282765 6.24282765 0 0 Z " fill="#40403E" transform="translate(92,153)"/>
<path d="M0 0 C6 7.4 6 7.4 6 11 C6.66 11 7.32 11 8 11 C9.65642764 14.05688229 11.29821792 17.12139395 12.9375 20.1875 C13.40607422 21.05181641 13.87464844 21.91613281 14.35742188 22.80664062 C14.80537109 23.64775391 15.25332031 24.48886719 15.71484375 25.35546875 C16.12855225 26.12528076 16.54226074 26.89509277 16.96850586 27.68823242 C18.05434833 30.12180458 18.5759133 32.37634398 19 35 C18.360625 35.103125 17.72125 35.20625 17.0625 35.3125 C16.381875 35.539375 15.70125 35.76625 15 36 C14.67 36.99 14.34 37.98 14 39 C13.74347656 38.319375 13.48695313 37.63875 13.22265625 36.9375 C10.66906959 30.47185296 7.7218293 24.42750178 4.3125 18.375 C3.92006104 17.67632812 3.52762207 16.97765625 3.12329102 16.2578125 C1.5865561 13.57108817 0.19868861 11.19868861 -2 9 C-1.7578125 6.8359375 -1.7578125 6.8359375 -1.125 4.375 C-0.92132813 3.55773437 -0.71765625 2.74046875 -0.5078125 1.8984375 C-0.34023438 1.27195313 -0.17265625 0.64546875 0 0 Z " fill="#474645" transform="translate(397,136)"/>
<path d="M0 0 C0.99 0.99 1.98 1.98 3 3 C1.50079488 6.11373372 -0.08152136 9.12228205 -2 12 C-2.66 12 -3.32 12 -4 12 C-4.226875 12.556875 -4.45375 13.11375 -4.6875 13.6875 C-6.3850851 16.67848327 -8.48464408 18.65614562 -11 21 C-11.50144531 21.47179687 -12.00289063 21.94359375 -12.51953125 22.4296875 C-15.67268367 25.25555068 -16.6101168 26 -21 26 C-16.47080579 16.18674587 -8.67851305 8.43855952 -1 1 C-0.67 0.67 -0.34 0.34 0 0 Z " fill="#3D3C3B" transform="translate(392,354)"/>
<path d="M0 0 C0.99 0.33 1.98 0.66 3 1 C2.67 1.99 2.34 2.98 2 4 C1.85481934 4.64831787 1.70963867 5.29663574 1.56005859 5.96459961 C0.97383126 8.09510408 0.17280024 9.67520325 -0.9609375 11.56640625 C-1.35023437 12.21673828 -1.73953125 12.86707031 -2.140625 13.53710938 C-2.54796875 14.20548828 -2.9553125 14.87386719 -3.375 15.5625 C-3.77460937 16.23474609 -4.17421875 16.90699219 -4.5859375 17.59960938 C-6.50024709 20.77018464 -8.29221995 23.44232831 -11 26 C-11 25.01 -11 24.02 -11 23 C-11.66 23 -12.32 23 -13 23 C-12.83808923 15.71401553 -9.03807507 10.85660773 -5 5 C-4.34 4.01 -3.68 3.02 -3 2 C-2.01 2 -1.02 2 0 2 C0 1.34 0 0.68 0 0 Z " fill="#302F2C" transform="translate(105,134)"/>
<path d="M0 0 C0.99 0.33 1.98 0.66 3 1 C2.979375 1.94875 2.95875 2.8975 2.9375 3.875 C2.77448174 6.90666283 2.77448174 6.90666283 4 9 C5.32 8.67 6.64 8.34 8 8 C8.86585625 10.9550405 9.71566785 13.91445682 10.5625 16.875 C10.80935547 17.71675781 11.05621094 18.55851562 11.31054688 19.42578125 C11.53935547 20.23144531 11.76816406 21.03710938 12.00390625 21.8671875 C12.32597046 22.98262939 12.32597046 22.98262939 12.65454102 24.12060547 C13 26 13 26 12 28 C11.34 27.67 10.68 27.34 10 27 C9.67 28.98 9.34 30.96 9 33 C6.94248483 29.29456759 5.74097805 25.34392324 4.5 21.3125 C4.27932861 20.59932617 4.05865723 19.88615234 3.83129883 19.15136719 C0 6.60011784 0 6.60011784 0 0 Z " fill="#4B4A49" transform="translate(70,276)"/>
<path d="M0 0 C0 7.92 0 15.84 0 24 C-0.66 24 -1.32 24 -2 24 C-2.103125 24.639375 -2.20625 25.27875 -2.3125 25.9375 C-2.539375 26.618125 -2.76625 27.29875 -3 28 C-3.99 28.33 -4.98 28.66 -6 29 C-6.49397281 10.69556296 -6.49397281 10.69556296 -4 2 C-1 0 -1 0 0 0 Z " fill="#363635" transform="translate(431,245)"/>
<path d="M0 0 C1.31153763 1.46809505 2.54994075 3.00195784 3.75 4.5625 C6.25763148 7.78855875 8.78701789 10.94466538 11.5 14 C14 17 14 17 14 19 C13.01 19.33 12.02 19.66 11 20 C9 19 9 19 8 16 C7.25363281 15.92265625 6.50726563 15.8453125 5.73828125 15.765625 C2.31601602 14.80875769 1.31702289 13.55224798 -0.8125 10.75 C-1.41707031 9.98171875 -2.02164063 9.2134375 -2.64453125 8.421875 C-4.17185796 5.6929339 -4.27821069 4.07668297 -4 1 C-2 0 -2 0 0 0 Z " fill="#434242" transform="translate(112,356)"/>
<path d="M0 0 C4.1666604 0.47348414 6.92884715 1.04696841 10 4 C10 4.66 10 5.32 10 6 C10.66 6 11.32 6 12 6 C15.10589492 9.60980118 17.07016525 12.69024864 16.8125 17.5 C16.544375 18.325 16.27625 19.15 16 20 C11.71367372 18.4549289 9.50764163 15.20680284 6.875 11.6875 C6.21177734 10.83381836 6.21177734 10.83381836 5.53515625 9.96289062 C3.11462921 6.77817907 1.26891572 3.79961841 0 0 Z " fill="#3A3937" transform="translate(380,122)"/>
<path d="M0 0 C0.33 1.65 0.66 3.3 1 5 C3.31 5.33 5.62 5.66 8 6 C8 6.33 8 6.66 8 7 C1.55139796 7.29854639 -3.81283071 6.25825856 -10 4.5 C-10.87011719 4.26152344 -11.74023438 4.02304687 -12.63671875 3.77734375 C-14.76048675 3.193891 -16.88124079 2.60133866 -19 2 C-19 1.34 -19 0.68 -19 0 C-19.99 0 -20.98 0 -22 0 C-22 -0.66 -22 -1.32 -22 -2 C-15.40547638 -5.29726181 -6.64014016 -1.67750909 0 0 Z " fill="#474645" transform="translate(219,423)"/>
<path d="M0 0 C0.63679687 0.06058594 1.27359375 0.12117188 1.9296875 0.18359375 C14.26137688 1.24667042 26.63342691 1.56936466 39 2 C39 2.33 39 2.66 39 3 C32.73 3.33 26.46 3.66 20 4 C20 4.66 20 5.32 20 6 C17.00519083 6.8723412 14.36424089 7.10829766 11.25 7.0625 C10.45078125 7.05347656 9.6515625 7.04445313 8.828125 7.03515625 C8.22484375 7.02355469 7.6215625 7.01195312 7 7 C7 6.34 7 5.68 7 5 C5.3603125 5.061875 5.3603125 5.061875 3.6875 5.125 C0 5 0 5 -3 3 C-2.01 3 -1.02 3 0 3 C0 2.01 0 1.02 0 0 Z " fill="#434241" transform="translate(220,424)"/>
<path d="M0 0 C-0.33 1.32 -0.66 2.64 -1 4 C-0.01 3.67 0.98 3.34 2 3 C4.1875 3.9375 4.1875 3.9375 6 5 C4.38931641 5.39832031 4.38931641 5.39832031 2.74609375 5.8046875 C1.3098799 6.16139421 -0.12631712 6.51816866 -1.5625 6.875 C-2.26697266 7.04902344 -2.97144531 7.22304687 -3.69726562 7.40234375 C-7.12905311 8.25633695 -10.52274264 9.15260435 -13.90234375 10.1953125 C-17 11 -17 11 -19 10 C-19 9.01 -19 8.02 -19 7 C-19.99 6.67 -20.98 6.34 -22 6 C-19.60539412 5.18372554 -17.20943474 4.37188355 -14.8125 3.5625 C-14.13896484 3.33240234 -13.46542969 3.10230469 -12.77148438 2.86523438 C-4.25883152 0 -4.25883152 0 0 0 Z " fill="#4D4C4A" transform="translate(205,66)"/>
<path d="M0 0 C0 0.99 0 1.98 0 3 C0.33 3.66 0.66 4.32 1 5 C-1.58067563 5.69918305 -4.16372847 6.38461049 -6.75 7.0625 C-7.47960937 7.26166016 -8.20921875 7.46082031 -8.9609375 7.66601562 C-15.41636867 9.33855916 -15.41636867 9.33855916 -19 8 C-21.25 5.4375 -21.25 5.4375 -23 3 C-21.79601562 2.79503906 -20.59203125 2.59007812 -19.3515625 2.37890625 C-17.77601308 2.10693641 -16.20049379 1.83479193 -14.625 1.5625 C-13.8309375 1.42779297 -13.036875 1.29308594 -12.21875 1.15429688 C-2.04431742 -0.61329523 -2.04431742 -0.61329523 0 0 Z " fill="#464545" transform="translate(298,421)"/>
<path d="M0 0 C8.26565816 1.25889784 16.05964735 3.39950295 24 6 C21.25 10.875 21.25 10.875 19 12 C16.828125 11.51171875 16.828125 11.51171875 14.25 10.6875 C13.36054688 10.40648438 12.47109375 10.12546875 11.5546875 9.8359375 C5.46486486 7.84324324 5.46486486 7.84324324 3 7 C3.99 5.35 4.98 3.7 6 2 C4.68 2.33 3.36 2.66 2 3 C1.34 2.01 0.68 1.02 0 0 Z " fill="#464644" transform="translate(288,64)"/>
<path d="M0 0 C0.33 0 0.66 0 1 0 C1.39363688 7.74152536 -0.05789567 14.52058632 -2 22 C-2.598125 21.773125 -3.19625 21.54625 -3.8125 21.3125 C-4.534375 21.209375 -5.25625 21.10625 -6 21 C-6.99 21.99 -7.98 22.98 -9 24 C-7.68 17.07 -6.36 10.14 -5 3 C-4.67 3.66 -4.34 4.32 -4 5 C-0.75150023 3.27773504 -0.75150023 3.27773504 0 0 Z " fill="#454543" transform="translate(429,269)"/>
<path d="M0 0 C1.32 0.99 2.64 1.98 4 3 C4 3.66 4 4.32 4 5 C3.01 5 2.02 5 1 5 C1 36.02 1 67.04 1 99 C0.67 99 0.34 99 0 99 C0 66.33 0 33.66 0 0 Z " fill="#E2DFDA" transform="translate(163,182)"/>
<path d="M0 0 C6.30088708 0.53397348 10.38158103 1.38158103 15 6 C15.66 6.33 16.32 6.66 17 7 C16.67 8.32 16.34 9.64 16 11 C9.87000876 10.50297368 4.34416636 7.92244872 -1 5 C-1.33 4.34 -1.66 3.68 -2 3 C-1.34 2.01 -0.68 1.02 0 0 Z " fill="#474747" transform="translate(310,71)"/>
<path d="M0 0 C3.51571411 6.64928537 5.4907753 13.47477866 5 21 C4.01 21.33 3.02 21.66 2 22 C1.34 22.66 0.68 23.32 0 24 C-0.50588147 22.08487728 -1.00448391 20.16783078 -1.5 18.25 C-1.7784375 17.18265625 -2.056875 16.1153125 -2.34375 15.015625 C-3 12 -3 12 -3 8 C-2.34 8 -1.68 8 -1 8 C-0.67 5.36 -0.34 2.72 0 0 Z " fill="#4B4A49" transform="translate(423,190)"/>
<path d="M0 0 C12.87 0 25.74 0 39 0 C39 0.66 39 1.32 39 2 C38.20335937 2.25394531 37.40671875 2.50789062 36.5859375 2.76953125 C31.17694824 4.52646572 25.9784197 6.23421128 21 9 C21.33 6.69 21.66 4.38 22 2 C14.74 2 7.48 2 0 2 C0 1.34 0 0.68 0 0 Z " fill="#4D4C49" transform="translate(326,200)"/>
<path d="M0 0 C0.33 1.32 0.66 2.64 1 4 C2.010625 3.690625 3.02125 3.38125 4.0625 3.0625 C8 3 8 3 10.0234375 4.4921875 C11.77126531 6.26855128 13.41963225 8.0737767 15 10 C14.67 10.99 14.34 11.98 14 13 C13.34 13 12.68 13 12 13 C12 13.66 12 14.32 12 15 C7.92623969 13.38989473 5.23492931 10.46177729 2.25 7.375 C1.74339844 6.859375 1.23679687 6.34375 0.71484375 5.8125 C-0.52803902 4.54616661 -1.76465276 3.2736856 -3 2 C-2.01 1.34 -1.02 0.68 0 0 Z " fill="#515151" transform="translate(120,371)"/>
<path d="M0 0 C0 3.51716303 -0.82445585 4.37121748 -3 7 C-2.01 7 -1.02 7 0 7 C0.33 6.34 0.66 5.68 1 5 C0.67 6.65 0.34 8.3 0 10 C-0.66 10 -1.32 10 -2 10 C-2 10.66 -2 11.32 -2 12 C-7.47619048 17 -7.47619048 17 -10 17 C-10.33 17.66 -10.66 18.32 -11 19 C-11 17.35 -11 15.7 -11 14 C-10.34 14 -9.68 14 -9 14 C-9.33 13.34 -9.66 12.68 -10 12 C-10.99 12 -11.98 12 -13 12 C-12.14535156 11.21753906 -11.29070312 10.43507813 -10.41015625 9.62890625 C-9.29425993 8.60678273 -8.17837511 7.58464667 -7.0625 6.5625 C-6.21655273 5.7880957 -6.21655273 5.7880957 -5.35351562 4.99804688 C-2.64001674 2.53775333 -2.64001674 2.53775333 0 0 Z " fill="#464644" transform="translate(374,373)"/>
<path d="M0 0 C0 0.33 0 0.66 0 1 C2.97 1.495 2.97 1.495 6 2 C6 2.33 6 2.66 6 3 C-10.70842825 6.44419134 -10.70842825 6.44419134 -19 6 C-18.67 4.68 -18.34 3.36 -18 2 C-17.0925 2.04125 -16.185 2.0825 -15.25 2.125 C-12.12438955 2.2414787 -12.12438955 2.2414787 -10.125 1 C-6.78704498 -0.57080236 -3.65998861 -0.12199962 0 0 Z " fill="#2F2D2C" transform="translate(223,64)"/>
<path d="M0 0 C0.99 0 1.98 0 3 0 C3.40214229 6.16618181 1.96818336 11.17745757 0 17 C-1.65 17.33 -3.3 17.66 -5 18 C-5.28773432 13.20922365 -4.44169975 9.99382444 -2.5 5.625 C-2.0359375 4.56539062 -1.571875 3.50578125 -1.09375 2.4140625 C-0.55234375 1.21910156 -0.55234375 1.21910156 0 0 Z " fill="#373634" transform="translate(77,193)"/>
<path d="M0 0 C4.53667664 0.53372666 7.54070756 2.01242926 11 5 C11.875 8.75 11.875 8.75 12 12 C6.55791766 11.65986985 3.06331802 8.29703472 -1 5 C-0.67 3.35 -0.34 1.7 0 0 Z " fill="#494847" transform="translate(351,93)"/>
<path d="M0 0 C0 3 0 3 -2 7 C8.89 7 19.78 7 31 7 C31 7.66 31 8.32 31 9 C16.15 9 1.3 9 -14 9 C-14 8.34 -14 7.68 -14 7 C-12.98679688 6.74476563 -12.98679688 6.74476563 -11.953125 6.484375 C-5.11888033 4.69961407 -5.11888033 4.69961407 0 0 Z " fill="#47443F" transform="translate(153,296)"/>
<path d="M0 0 C4.63720719 3.27530896 8.68542782 6.30435607 12 11 C11.01 11.33 10.02 11.66 9 12 C8.67 12.99 8.34 13.98 8 15 C7.01 14.34 6.02 13.68 5 13 C5 12.34 5 11.68 5 11 C4.38125 10.731875 3.7625 10.46375 3.125 10.1875 C1 9 1 9 -1 6 C-0.34 6 0.32 6 1 6 C0.67 4.02 0.34 2.04 0 0 Z " fill="#4C4B4A" transform="translate(362,99)"/>
<path d="M0 0 C2.72792545 1.17964344 4.57577877 2.20458519 6 4.875 C7.22703398 8.08416581 8 10.5345675 8 14 C6.35 14.33 4.7 14.66 3 15 C-0.16727335 9.8531808 -0.35050464 5.841744 0 0 Z " fill="#3C3B3B" transform="translate(79,302)"/>
<path d="M0 0 C0.66 0.33 1.32 0.66 2 1 C1.67 1.99 1.34 2.98 1 4 C1.99 4 2.98 4 4 4 C4.33 3.34 4.66 2.68 5 2 C5.66 2.66 6.32 3.32 7 4 C-0.65 9.82857143 -0.65 9.82857143 -5.9375 10.5 C-9 10 -9 10 -11 8 C-9.87926138 7.16094435 -8.75325453 6.32892169 -7.625 5.5 C-6.99851563 5.0359375 -6.37203125 4.571875 -5.7265625 4.09375 C-4 3 -4 3 -2 3 C-2 2.34 -2 1.68 -2 1 C-1.34 0.67 -0.68 0.34 0 0 Z " fill="#4D4D4C" transform="translate(149,90)"/>
<path d="M0 0 C1.65 0 3.3 0 5 0 C1.96404537 5.79591338 -2.19676611 8.2474087 -8 11 C-10.44433467 11.66506632 -12.45463153 11.88933181 -15 12 C-14.78125 10.1015625 -14.78125 10.1015625 -14 8 C-11.96875 7.0234375 -11.96875 7.0234375 -9.5 6.375 C-7.08704599 5.75852619 -7.08704599 5.75852619 -5 5 C-4.67 4.34 -4.34 3.68 -4 3 C-3.01 3.33 -2.02 3.66 -1 4 C-0.67 2.68 -0.34 1.36 0 0 Z " fill="#333231" transform="translate(165,82)"/>
<path d="M0 0 C0 4.01223878 -0.0773819 6.86612823 -2.671875 10.0546875 C-3.35765625 10.65539062 -4.0434375 11.25609375 -4.75 11.875 C-5.42546875 12.49117187 -6.1009375 13.10734375 -6.796875 13.7421875 C-9 15 -9 15 -11.765625 14.6953125 C-12.50296875 14.46585938 -13.2403125 14.23640625 -14 14 C-12.38405168 11.95880212 -10.7143618 9.95927063 -9 8 C-8.34 8 -7.68 8 -7 8 C-6.67 7.01 -6.34 6.02 -6 5 C-4.12382302 3.15500602 -2.07262391 1.6316401 0 0 Z " fill="#3C3B39" transform="translate(309,235)"/>
<path d="M0 0 C2.475 0.99 2.475 0.99 5 2 C4.53199289 6.05606165 4.12046792 9.46588679 2 13 C2 12.01 2 11.02 2 10 C1.01 10.33 0.02 10.66 -1 11 C-2.24950052 13.55401848 -2.24950052 13.55401848 -3.1875 16.5625 C-3.53167969 17.57441406 -3.87585938 18.58632812 -4.23046875 19.62890625 C-4.48441406 20.41136719 -4.73835938 21.19382813 -5 22 C-6.13087014 18.60738958 -5.86514295 17.83482243 -4.78515625 14.55078125 C-4.37426758 13.27944336 -4.37426758 13.27944336 -3.95507812 11.98242188 C-3.66052734 11.10134766 -3.36597656 10.22027344 -3.0625 9.3125 C-2.77181641 8.41982422 -2.48113281 7.52714844 -2.18164062 6.60742188 C-1.46230013 4.40223052 -0.73483328 2.20006742 0 0 Z " fill="#5B5A59" transform="translate(78,183)"/>
<path d="M0 0 C3.34998521 1.11666174 3.79340222 1.74694925 5.6875 4.5625 C6.34298828 5.52349609 6.34298828 5.52349609 7.01171875 6.50390625 C7.33785156 6.99761719 7.66398437 7.49132812 8 8 C6.68 8.99 5.36 9.98 4 11 C3.67 10.01 3.34 9.02 3 8 C-0.60992379 8.65585189 -0.60992379 8.65585189 -4 10 C-4.33 9.34 -4.66 8.68 -5 8 C-5.66 7.67 -6.32 7.34 -7 7 C-4.69 4.69 -2.38 2.38 0 0 Z " fill="#EDE9E3" transform="translate(280,268)"/>
<path d="M0 0 C4.83180659 -0.34512904 7.9511138 0.26935582 12 3 C12.875 5.6875 12.875 5.6875 13 8 C5.77885953 7.63282337 5.77885953 7.63282337 2 4.5625 C0 2 0 2 0 0 Z " fill="#3F3E3D" transform="translate(173,410)"/>
<path d="M0 0 C4.13347071 0.47239665 7.35761877 2.05174957 11 4 C10.01 4.99 9.02 5.98 8 7 C8.33 7.99 8.66 8.98 9 10 C4.02790438 8.23570801 -0.43438061 5.6060834 -5 3 C-4.360625 2.690625 -3.72125 2.38125 -3.0625 2.0625 C-1.06389179 1.1654837 -1.06389179 1.1654837 0 0 Z " fill="#555553" transform="translate(166,405)"/>
<path d="M0 0 C0.33 0.99 0.66 1.98 1 3 C1.66 3 2.32 3 3 3 C3 2.34 3 1.68 3 1 C3.99 0.67 4.98 0.34 6 0 C7.65 2.64 9.3 5.28 11 8 C10.01 8.33 9.02 8.66 8 9 C7.26676204 11.01508358 7.26676204 11.01508358 7 13 C5.84906075 11.5665848 4.70441965 10.12811091 3.5625 8.6875 C2.92441406 7.88699219 2.28632812 7.08648437 1.62890625 6.26171875 C0 4 0 4 -1 1 C-0.67 0.67 -0.34 0.34 0 0 Z " fill="#515151" transform="translate(100,348)"/>
<path d="M0 0 C0.99 0.33 1.98 0.66 3 1 C2.979375 1.94875 2.95875 2.8975 2.9375 3.875 C2.77448174 6.90666283 2.77448174 6.90666283 4 9 C5.32 8.67 6.64 8.34 8 8 C8.33 10.31 8.66 12.62 9 15 C8.34 15 7.68 15 7 15 C6.67 17.64 6.34 20.28 6 23 C3.08092388 20.08092388 2.75153428 16.53369359 1.875 12.625 C1.69324219 11.85671875 1.51148437 11.0884375 1.32421875 10.296875 C0.49441933 6.69067902 0 3.74628759 0 0 Z " fill="#4D4C4C" transform="translate(70,276)"/>
<path d="M0 0 C3.30616284 3.80208727 7 9.83581485 7 15 C6.360625 15.103125 5.72125 15.20625 5.0625 15.3125 C4.0415625 15.6528125 4.0415625 15.6528125 3 16 C2.67 16.99 2.34 17.98 2 19 C1.01 16.03 0.02 13.06 -1 10 C-0.34 10 0.32 10 1 10 C0.814375 9.21625 0.62875 8.4325 0.4375 7.625 C0 5 0 5 1 3 C0.34 2.67 -0.32 2.34 -1 2 C-0.67 1.34 -0.34 0.68 0 0 Z " fill="#464544" transform="translate(409,156)"/>
<path d="M0 0 C2.86855713 0.08436933 4.55682315 0.58692181 6.66796875 2.5546875 C11 7.51440024 11 7.51440024 11 10 C10.01 10.33 9.02 10.66 8 11 C6 10 6 10 5 7 C4.01 6.67 3.02 6.34 2 6 C1.34 5.34 0.68 4.68 0 4 C0 2.68 0 1.36 0 0 Z " fill="#353433" transform="translate(115,365)"/>
<path d="M0 0 C1.4606285 2.64738916 2 3.89448334 2 7 C2.061875 8.5159375 2.061875 8.5159375 2.125 10.0625 C2 13 2 13 0 15 C-0.83790789 13.21046815 -1.67019396 11.41830305 -2.5 9.625 C-3.19609375 8.12839844 -3.19609375 8.12839844 -3.90625 6.6015625 C-5 4 -5 4 -5 2 C-3.35 1.34 -1.7 0.68 0 0 Z " fill="#505050" transform="translate(87,315)"/>
<path d="M0 0 C0.66 0.33 1.32 0.66 2 1 C1.67 1.33 1.34 1.66 1 2 C1.66 2.33 2.32 2.66 3 3 C3 3.66 3 4.32 3 5 C3.66 5.33 4.32 5.66 5 6 C1.7 7.32 -1.6 8.64 -5 10 C-5.66 8.02 -6.32 6.04 -7 4 C-1.7265625 0.77734375 -1.7265625 0.77734375 0 0 Z " fill="#51504E" transform="translate(329,406)"/>
<path d="M0 0 C0.33 0.99 0.66 1.98 1 3 C-0.56181132 5.74197701 -2.60411783 7.95580695 -5 10 C-7.875 10.4375 -7.875 10.4375 -10 10 C-9.33333333 8.66666667 -8.66666667 7.33333333 -8 6 C-7.71125 5.29875 -7.4225 4.5975 -7.125 3.875 C-5.41977426 1.0329571 -3.28840171 0 0 0 Z " fill="#343331" transform="translate(381,370)"/>
<path d="M0 0 C1.23556641 0.01740234 1.23556641 0.01740234 2.49609375 0.03515625 C3.32238281 0.04417969 4.14867187 0.05320312 5 0.0625 C5.63808594 0.07410156 6.27617187 0.08570313 6.93359375 0.09765625 C6.93359375 0.75765625 6.93359375 1.41765625 6.93359375 2.09765625 C7.92359375 2.75765625 8.91359375 3.41765625 9.93359375 4.09765625 C5.81395605 5.39009161 2.26527692 6.3601825 -2.06640625 6.09765625 C-2.44859392 4.44150968 -2.78035727 2.77308601 -3.06640625 1.09765625 C-2.06640625 0.09765625 -2.06640625 0.09765625 0 0 Z " fill="#403F3F" transform="translate(272.06640625,424.90234375)"/>
<path d="M0 0 C1 3 1 3 1 5 C1.66 5.33 2.32 5.66 3 6 C-1.455 9.96 -1.455 9.96 -6 14 C-6.33 13.01 -6.66 12.02 -7 11 C-6.01 11 -5.02 11 -4 11 C-4 10.34 -4 9.68 -4 9 C-3.67 8.67 -3.34 8.34 -3 8 C-4.32 7.67 -5.64 7.34 -7 7 C-4.69 4.69 -2.38 2.38 0 0 Z " fill="#3D3B39" transform="translate(333,212)"/>
<path d="M0 0 C2.64 0.33 5.28 0.66 8 1 C8 4 8 4 6.5 5.6875 C6.005 6.120625 5.51 6.55375 5 7 C2.97954558 6.39816251 0.97888961 5.72693904 -1 5 C-1.33 4.34 -1.66 3.68 -2 3 C-1.34 2.01 -0.68 1.02 0 0 Z " fill="#43423F" transform="translate(310,71)"/>
<path d="M0 0 C1.4391134 0.28359887 2.87625518 0.57721399 4.3125 0.875 C5.11300781 1.03742188 5.91351563 1.19984375 6.73828125 1.3671875 C9 2 9 2 12 4 C11.505 4.45375 11.01 4.9075 10.5 5.375 C8.77390663 6.87635519 8.77390663 6.87635519 9 9 C6.69 8.34 4.38 7.68 2 7 C2.04125 6.21625 2.0825 5.4325 2.125 4.625 C2.28728734 1.83883881 2.28728734 1.83883881 0 0 Z " fill="#575655" transform="translate(300,67)"/>
<path d="M0 0 C0.66 0.33 1.32 0.66 2 1 C2 1.66 2 2.32 2 3 C2.99 3 3.98 3 5 3 C3.62845496 5.95409701 2.01136276 8.44008376 0 11 C-0.66 10.67 -1.32 10.34 -2 10 C-2 9.01 -2 8.02 -2 7 C-3.65 7.66 -5.3 8.32 -7 9 C-6.02180976 7.68677212 -5.0424189 6.37443848 -4.0625 5.0625 C-3.51722656 4.33160156 -2.97195313 3.60070312 -2.41015625 2.84765625 C-1 1 -1 1 0 0 Z " fill="#4E4E4C" transform="translate(383,363)"/>
<path d="M0 0 C0.33 0.99 0.66 1.98 1 3 C1.66 3 2.32 3 3 3 C2.67 6.3 2.34 9.6 2 13 C1.01 12.67 0.02 12.34 -1 12 C-1.66 8.7 -2.32 5.4 -3 2 C-2.01 1.34 -1.02 0.68 0 0 Z " fill="#333130" transform="translate(420,185)"/>
<path d="M0 0 C0.33 0.99 0.66 1.98 1 3 C0.34 3 -0.32 3 -1 3 C-1 4.65 -1 6.3 -1 8 C-2.6875 9.125 -2.6875 9.125 -5 10 C-7.75 9.125 -7.75 9.125 -10 8 C-6.88983545 4.71211176 -3.98381075 2.16264012 0 0 Z " fill="#474544" transform="translate(364,384)"/>
<path d="M0 0 C1.98 0 3.96 0 6 0 C6.125 3.375 6.125 3.375 6 7 C5.34 7.66 4.68 8.32 4 9 C3.01 8.67 2.02 8.34 1 8 C0.01 8.99 -0.98 9.98 -2 11 C-1.34 7.37 -0.68 3.74 0 0 Z " fill="#504E4E" transform="translate(422,282)"/>
<path d="M0 0 C4.62 0 9.24 0 14 0 C13.67 1.98 13.34 3.96 13 6 C10.02277453 5.29666462 7.14743457 4.41751463 4.25 3.4375 C3.45078125 3.16808594 2.6515625 2.89867187 1.828125 2.62109375 C0.92320312 2.31365234 0.92320312 2.31365234 0 2 C0 1.34 0 0.68 0 0 Z " fill="#3A3835" transform="translate(138,161)"/>
<path d="M0 0 C4.76197836 2.31993818 4.76197836 2.31993818 5.875 5.5 C6 8 6 8 5 11 C1.83884224 9.63016497 1.0072908 9.0109362 -1 6 C-0.625 2.8125 -0.625 2.8125 0 0 Z " fill="#363433" transform="translate(391,131)"/>
<path d="M0 0 C0 0.66 0 1.32 0 2 C-1.30144802 3.04115841 -2.63838689 4.03886134 -4 5 C-4.66 5.66 -5.32 6.32 -6 7 C-7.32796291 7.35412344 -8.66216607 7.68521554 -10 8 C-12.5563619 9.12780672 -14.00166497 10.00166497 -16 12 C-16.99 11.34 -17.98 10.68 -19 10 C-16.91794343 8.70623653 -14.83442696 7.41493446 -12.75 6.125 C-12.16347656 5.76019531 -11.57695312 5.39539063 -10.97265625 5.01953125 C-2.85014205 0 -2.85014205 0 0 0 Z " fill="#636464" transform="translate(170,79)"/>
<path d="M0 0 C0.66 1.32 1.32 2.64 2 4 C-0.31 6.64 -2.62 9.28 -5 12 C-6.32 11.34 -7.64 10.68 -9 10 C-7.68 9.34 -6.36 8.68 -5 8 C-5.66 7.67 -6.32 7.34 -7 7 C-4.69 4.69 -2.38 2.38 0 0 Z " fill="#3C3B37" transform="translate(279,263)"/>
<path d="M0 0 C2.74277578 3.19990508 4.6302836 6.00499382 6 10 C3.125 10.625 3.125 10.625 0 11 C-0.66 10.34 -1.32 9.68 -2 9 C-1.7578125 6.8359375 -1.7578125 6.8359375 -1.125 4.375 C-0.92132813 3.55773437 -0.71765625 2.74046875 -0.5078125 1.8984375 C-0.34023438 1.27195313 -0.17265625 0.64546875 0 0 Z " fill="#535352" transform="translate(397,136)"/>
<path d="M0 0 C1.98 0 3.96 0 6 0 C6.33 1.65 6.66 3.3 7 5 C9.31 5.33 11.62 5.66 14 6 C14 6.33 14 6.66 14 7 C7.79029227 7.33266291 3.71735105 6.45029331 -2 4 C-1.34 2.68 -0.68 1.36 0 0 Z " fill="#515152" transform="translate(213,423)"/>
<path d="M0 0 C0.99 0.33 1.98 0.66 3 1 C1.61811547 4.21043882 0.07578097 6.04936365 -2.625 8.25 C-3.25664062 8.77078125 -3.88828125 9.2915625 -4.5390625 9.828125 C-5.02117187 10.21484375 -5.50328125 10.6015625 -6 11 C-6 8.36 -6 5.72 -6 3 C-5.38125 2.87625 -4.7625 2.7525 -4.125 2.625 C-1.80879168 2.12802644 -1.80879168 2.12802644 0 0 Z " fill="#EEEAE4" transform="translate(277,260)"/>
<path d="M0 0 C1.2375 0.2475 2.475 0.495 3.75 0.75 C0.99865461 3.70514876 -1.64733775 5.9024809 -5.25 7.75 C-6.24 7.75 -7.23 7.75 -8.25 7.75 C-8.25 3.75 -8.25 3.75 -6.75 1.4375 C-3.9103395 -0.47927084 -3.26319437 -0.4107922 0 0 Z " fill="#393635" transform="translate(142.25,99.25)"/>
<path d="M0 0 C-0.66 1.32 -1.32 2.64 -2 4 C-1.01 4.66 -0.02 5.32 1 6 C-5.75 8.125 -5.75 8.125 -8 7 C-8 6.01 -8 5.02 -8 4 C-8.99 3.67 -9.98 3.34 -11 3 C-9.54293274 2.49632243 -8.08429904 1.99717444 -6.625 1.5 C-5.81289062 1.2215625 -5.00078125 0.943125 -4.1640625 0.65625 C-2 0 -2 0 0 0 Z " fill="#595959" transform="translate(194,69)"/>
<path d="M0 0 C3 0 3 0 6 1 C5.67 4.96 5.34 8.92 5 13 C4.67 13 4.34 13 4 13 C4 10.69 4 8.38 4 6 C3.01 6 2.02 6 1 6 C0.67 7.65 0.34 9.3 0 11 C-0.33 11 -0.66 11 -1 11 C-1.125 3.375 -1.125 3.375 0 0 Z " fill="#595858" transform="translate(71,209)"/>
<path d="M0 0 C1.65 0 3.3 0 5 0 C6.42258812 3.82320557 7.24042276 6.91281305 7 11 C4 10 4 10 2.83203125 8.22265625 C2.49558594 7.50980469 2.15914063 6.79695312 1.8125 6.0625 C1.46832031 5.35222656 1.12414062 4.64195312 0.76953125 3.91015625 C0 2 0 2 0 0 Z " fill="#2F2E2C" transform="translate(403,155)"/>
<path d="M0 0 C0 3 0 3 -1.0625 5.0625 C-1.371875 5.701875 -1.68125 6.34125 -2 7 C-1.67 7.66 -1.34 8.32 -1 9 C-5 11 -9 13 -13 15 C-9.09489511 9.49280079 -4.90282356 4.64172645 0 0 Z " fill="#DFDBD6" transform="translate(127,116)"/>
<path d="M0 0 C0 1.32 0 2.64 0 4 C-3 6 -3 6 -4.9375 5.9375 C-7.83932859 4.61848701 -9.16836073 2.55121184 -11 0 C-3.57142857 -1.28571429 -3.57142857 -1.28571429 0 0 Z " fill="#545353" transform="translate(286,424)"/>
<path d="M0 0 C0.99 0.33 1.98 0.66 3 1 C2.125 6.75 2.125 6.75 1 9 C-0.65 9 -2.3 9 -4 9 C-3.67 7.02 -3.34 5.04 -3 3 C-2.34 3 -1.68 3 -1 3 C-0.67 2.01 -0.34 1.02 0 0 Z " fill="#343432" transform="translate(83,176)"/>
<path d="M0 0 C2.0625 0.4375 2.0625 0.4375 4 1 C1.43571997 5.17882671 -1.01930733 8.12505529 -5 11 C-5 6.8267989 -3.00903153 3.00903153 0 0 Z " fill="#525253" transform="translate(101,138)"/>
<path d="M0 0 C0.33 0.66 0.66 1.32 1 2 C1.99 2 2.98 2 4 2 C3.38461538 7.53846154 3.38461538 7.53846154 1.4375 9.875 C0.7259375 10.431875 0.7259375 10.431875 0 11 C0 10.01 0 9.02 0 8 C-0.66 8 -1.32 8 -2 8 C-1.125 1.125 -1.125 1.125 0 0 Z " fill="#3D3D3B" transform="translate(94,149)"/>
<path d="M0 0 C1.32 0.33 2.64 0.66 4 1 C3.34 2.65 2.68 4.3 2 6 C-0.31 6.33 -2.62 6.66 -5 7 C-5 6.01 -5 5.02 -5 4 C-3.35 3.34 -1.7 2.68 0 2 C0 1.34 0 0.68 0 0 Z " fill="#3A3B39" transform="translate(321,411)"/>
<path d="M0 0 C2.375 0.25 2.375 0.25 5 1 C6.3125 3.0625 6.3125 3.0625 7 5 C4.69 5.33 2.38 5.66 0 6 C-1 3 -1 3 0 0 Z " fill="#3D3C3B" transform="translate(141,389)"/>
<path d="M0 0 C2.65069433 2.47398137 4.71615844 4.57642251 6 8 C6 9.32 6 10.64 6 12 C4.35 12 2.7 12 1 12 C1.020625 10.7625 1.04125 9.525 1.0625 8.25 C1.06766681 5.3359175 0.93015558 2.79046673 0 0 Z " fill="#373533" transform="translate(87,318)"/>
<path d="M0 0 C0.33 0 0.66 0 1 0 C1 10.23 1 20.46 1 31 C0.01 30.34 -0.98 29.68 -2 29 C-2 28.34 -2 27.68 -2 27 C-1.34 27 -0.68 27 0 27 C0 18.09 0 9.18 0 0 Z " fill="#CCC9C3" transform="translate(259,240)"/>
<path d="M0 0 C1.32 0.33 2.64 0.66 4 1 C1.525 4.465 1.525 4.465 -1 8 C-2.32 7.01 -3.64 6.02 -5 5 C-5.99 5.495 -5.99 5.495 -7 6 C-6.34 4.35 -5.68 2.7 -5 1 C-4.01 1.33 -3.02 1.66 -2 2 C-1.34 1.34 -0.68 0.68 0 0 Z " fill="#545454" transform="translate(397,350)"/>
<path d="M0 0 C0.99 0 1.98 0 3 0 C3 2.64 3 5.28 3 8 C1.68 8 0.36 8 -1 8 C-1.625 5.6875 -1.625 5.6875 -2 3 C-1.34 2.01 -0.68 1.02 0 0 Z " fill="#323231" transform="translate(77,291)"/>
<path d="M0 0 C0.33 0 0.66 0 1 0 C0.48594831 4.96916636 -0.23384882 9.29026351 -2 14 C-2.33 13.34 -2.66 12.68 -3 12 C-3.66 11.67 -4.32 11.34 -5 11 C-4.54917531 9.53932801 -4.08906463 8.08151968 -3.625 6.625 C-3.36976563 5.81289063 -3.11453125 5.00078125 -2.8515625 4.1640625 C-2 2 -2 2 0 0 Z " fill="#626262" transform="translate(425,291)"/>
<path d="M0 0 C-0.35233161 5.4611399 -0.35233161 5.4611399 -1 8 C-3.0625 9.5 -3.0625 9.5 -5 10 C-5.49076517 4.60158311 -5.49076517 4.60158311 -3.0625 1.625 C-1 0 -1 0 0 0 Z " fill="#292826" transform="translate(430,264)"/>
<path d="M0 0 C0.33 0.66 0.66 1.32 1 2 C0.67 2.66 0.34 3.32 0 4 C0.66 4 1.32 4 2 4 C2 4.99 2 5.98 2 7 C1.401875 7.061875 0.80375 7.12375 0.1875 7.1875 C-2.86915486 8.32282895 -3.46634026 10.21152775 -5 13 C-5.99 13.495 -5.99 13.495 -7 14 C-5.53967505 8.68972746 -3.01679014 4.53669968 0 0 Z " fill="#696969" transform="translate(92,153)"/>
<path d="M0 0 C2.46800047 1.15173355 4.04783565 2.04783565 6 4 C5.34 4 4.68 4 4 4 C3.67 4.99 3.34 5.98 3 7 C0.525 6.01 0.525 6.01 -2 5 C-2 4.01 -2 3.02 -2 2 C-1.34 2 -0.68 2 0 2 C0 1.34 0 0.68 0 0 Z " fill="#383637" transform="translate(134,382)"/>
<path d="M0 0 C1.65 0.33 3.3 0.66 5 1 C4.50168276 4.68754757 3.89932357 6.60490662 1 9 C0.4375 7.0625 0.4375 7.0625 0 5 C0.33 4.67 0.66 4.34 1 4 C0.34 3.67 -0.32 3.34 -1 3 C-1 3.66 -1 4.32 -1 5 C-1.66 4.67 -2.32 4.34 -3 4 C-2.01 2.68 -1.02 1.36 0 0 Z " fill="#51504D" transform="translate(106,131)"/>
<path d="M0 0 C0.66 0 1.32 0 2 0 C2 0.66 2 1.32 2 2 C2.66 2.66 3.32 3.32 4 4 C2.3125 5.5625 2.3125 5.5625 0 7 C-2.75 6.6875 -2.75 6.6875 -5 6 C-3.38405168 3.95880212 -1.7143618 1.95927063 0 0 Z " fill="#44423F" transform="translate(300,243)"/>
<path d="M0 0 C2.475 0.99 2.475 0.99 5 2 C5.25 4.8125 5.25 4.8125 5 8 C3 9.875 3 9.875 1 11 C1.33 9.35 1.66 7.7 2 6 C2.66 6 3.32 6 4 6 C4 5.34 4 4.68 4 4 C2.35 4 0.7 4 -1 4 C-0.67 2.68 -0.34 1.36 0 0 Z " fill="#E7E4DF" transform="translate(330,203)"/>
<path d="M0 0 C2.97 0.495 2.97 0.495 6 1 C5.34 2.32 4.68 3.64 4 5 C1.69 5 -0.62 5 -3 5 C-2.01 3.35 -1.02 1.7 0 0 Z " fill="#2D2D2D" transform="translate(194,69)"/>
<path d="M0 0 C1.98 0.99 3.96 1.98 6 3 C4.68 4.32 3.36 5.64 2 7 C0.68 5.68 -0.64 4.36 -2 3 C-1.34 2.01 -0.68 1.02 0 0 Z " fill="#373635" transform="translate(161,401)"/>
<path d="M0 0 C0.33 1.32 0.66 2.64 1 4 C0.21625 4.28875 -0.5675 4.5775 -1.375 4.875 C-4.09671632 5.84912254 -4.09671632 5.84912254 -6 8 C-6.625 6.1875 -6.625 6.1875 -7 4 C-4.83989616 0.75984424 -3.8842653 0 0 0 Z " fill="#373535" transform="translate(400,346)"/>
<path d="M0 0 C0.70125 0.309375 1.4025 0.61875 2.125 0.9375 C5.08936657 2.03302678 7.87698108 2.56422992 11 3 C11 3.66 11 4.32 11 5 C7.37 5 3.74 5 0 5 C0 3.35 0 1.7 0 0 Z " fill="#423F3B" transform="translate(277,332)"/>
<path d="M0 0 C1.31554985 0.4495045 2.62738358 0.90989716 3.9375 1.375 C5.03384766 1.75785156 5.03384766 1.75785156 6.15234375 2.1484375 C8 3 8 3 9 5 C8.01 5.495 8.01 5.495 7 6 C6.67 6.99 6.34 7.98 6 9 C4.68 8.67 3.36 8.34 2 8 C2.33 6.35 2.66 4.7 3 3 C2.01 2.67 1.02 2.34 0 2 C0 1.34 0 0.68 0 0 Z " fill="#626260" transform="translate(323,75)"/>
<path d="M0 0 C0 2 0 2 -2 4.125 C-2.66 4.74375 -3.32 5.3625 -4 6 C-3.67 6.66 -3.34 7.32 -3 8 C-4.32 8.33 -5.64 8.66 -7 9 C-7.33 7.02 -7.66 5.04 -8 3 C-2.25 0 -2.25 0 0 0 Z " fill="#4E4E4C" transform="translate(321,411)"/>
<path d="M0 0 C0.66 0.33 1.32 0.66 2 1 C2 3.31 2 5.62 2 8 C-1.37503669 6.8141763 -3.64722731 5.72426311 -6 3 C-4.02 2.67 -2.04 2.34 0 2 C0 1.34 0 0.68 0 0 Z " fill="#5F5F5E" transform="translate(148,392)"/>
<path d="M0 0 C2.75 0.25 2.75 0.25 5 1 C3.35 2.65 1.7 4.3 0 6 C-1.32 5.34 -2.64 4.68 -4 4 C-2.3125 1.9375 -2.3125 1.9375 0 0 Z " fill="#3A3734" transform="translate(294,249)"/>
<path d="M0 0 C0.99 0.33 1.98 0.66 3 1 C2.67 1.99 2.34 2.98 2 4 C1.855625 4.680625 1.71125 5.36125 1.5625 6.0625 C1 8 1 8 -1 10 C-1 9.34 -1 8.68 -1 8 C-1.66 7.67 -2.32 7.34 -3 7 C-2.34 6.34 -1.68 5.68 -1 5 C-1.66 4.67 -2.32 4.34 -3 4 C-3 3.34 -3 2.68 -3 2 C-2.01 2 -1.02 2 0 2 C0 1.34 0 0.68 0 0 Z " fill="#3C3C39" transform="translate(105,134)"/>
<path d="M0 0 C0.99 0 1.98 0 3 0 C3.66 1.32 4.32 2.64 5 4 C4.34 4 3.68 4 3 4 C1.36323743 5.9600281 1.36323743 5.9600281 0 8 C-1.125 5.6875 -1.125 5.6875 -2 3 C-1.34 2.01 -0.68 1.02 0 0 Z " fill="#4F4F4E" transform="translate(389,128)"/>
<path d="M0 0 C0 0.99 0 1.98 0 3 C-0.99 3.33 -1.98 3.66 -3 4 C-3.28875 4.598125 -3.5775 5.19625 -3.875 5.8125 C-5.35537318 8.69100341 -7.42278571 10.10099999 -10 12 C-10.66 11.67 -11.32 11.34 -12 11 C-10.75323147 9.72599623 -9.5024352 8.45593346 -8.25 7.1875 C-7.55390625 6.47980469 -6.8578125 5.77210937 -6.140625 5.04296875 C-4.18571355 3.17724121 -2.19661447 1.56830358 0 0 Z " fill="#7A7979" transform="translate(137,99)"/>
<path d="M0 0 C2.475 0.495 2.475 0.495 5 1 C5.33 2.32 5.66 3.64 6 5 C5.34 5 4.68 5 4 5 C4 5.66 4 6.32 4 7 C3.34 7 2.68 7 2 7 C0.5393715 4.35261084 0 3.10551666 0 0 Z " fill="#30302E" transform="translate(99,344)"/>
<path d="M0 0 C0.598125 0.226875 1.19625 0.45375 1.8125 0.6875 C0.56703595 4.42389216 -0.82154953 4.87506513 -4.1875 6.6875 C-4.875 4.875 -4.875 4.875 -5.1875 2.6875 C-3.58493056 0.24147296 -2.95482043 -0.4221172 0 0 Z " fill="#323230" transform="translate(410.1875,327.3125)"/>
<path d="M0 0 C0 0.99 0 1.98 0 3 C0.66 3.33 1.32 3.66 2 4 C1 7 1 7 -1.0625 8.1875 C-1.701875 8.455625 -2.34125 8.72375 -3 9 C-3.66 7.68 -4.32 6.36 -5 5 C-3.35 3.35 -1.7 1.7 0 0 Z " fill="#E8E6E0" transform="translate(299,250)"/>
<path d="M0 0 C2.475 0.99 2.475 0.99 5 2 C3.25 6.875 3.25 6.875 1 8 C0.01 7.01 -0.98 6.02 -2 5 C-1.34 4.67 -0.68 4.34 0 4 C0 2.68 0 1.36 0 0 Z " fill="#555352" transform="translate(348,89)"/>
<path d="M0 0 C1.5625 1.25 1.5625 1.25 3 3 C2.6875 5.1875 2.6875 5.1875 2 7 C1.67 6.34 1.34 5.68 1 5 C-0.98 5.99 -0.98 5.99 -3 7 C-3.33 5.35 -3.66 3.7 -4 2 C-3.01 2 -2.02 2 -1 2 C-0.67 1.34 -0.34 0.68 0 0 Z " fill="#484847" transform="translate(419,181)"/>
<path d="M0 0 C-0.1875 1.875 -0.1875 1.875 -1 4 C-3.5625 5.25 -3.5625 5.25 -6 6 C-6 4.35 -6 2.7 -6 1 C-3 0 -3 0 0 0 Z " fill="#EBE7E0" transform="translate(201,73)"/>
<path d="M0 0 C0.66 0 1.32 0 2 0 C2.625 1.875 2.625 1.875 3 4 C2.34 4.66 1.68 5.32 1 6 C0.34 6.99 -0.32 7.98 -1 9 C-1.33 6.69 -1.66 4.38 -2 2 C-1.34 2 -0.68 2 0 2 C0 1.34 0 0.68 0 0 Z " fill="#474644" transform="translate(99,340)"/>
<path d="M0 0 C0 3.65923696 -0.75756777 5.13896577 -3 8 C-5.6875 8.3125 -5.6875 8.3125 -8 8 C-8 7.34 -8 6.68 -8 6 C-6.02678947 4.6273318 -4.02456848 3.29572383 -2 2 C-1.34 1.34 -0.68 0.68 0 0 Z " fill="#3A3A37" transform="translate(153,296)"/>
<path d="M0 0 C0.99 1.32 1.98 2.64 3 4 C2.01 4.495 2.01 4.495 1 5 C1 5.99 1 6.98 1 8 C1.66 8.66 2.32 9.32 3 10 C2.01 10 1.02 10 0 10 C-1.6875 7.5 -1.6875 7.5 -3 5 C-2.34 5 -1.68 5 -1 5 C-0.67 3.35 -0.34 1.7 0 0 Z " fill="#606060" transform="translate(115,361)"/>
<path d="M0 0 C0.99 0 1.98 0 3 0 C2.40072174 3.35595828 1.15377564 5.37801226 -1 8 C-1.93065133 5.39417629 -2.14917407 4.35801776 -1.0625 1.75 C-0.711875 1.1725 -0.36125 0.595 0 0 Z " fill="#292928" transform="translate(77,193)"/>
<path d="M0 0 C1.32 0 2.64 0 4 0 C4 0.66 4 1.32 4 2 C5.32 2.66 6.64 3.32 8 4 C7.01 4.99 6.02 5.98 5 7 C3.35 4.69 1.7 2.38 0 0 Z " fill="#EDE9E3" transform="translate(171,160)"/>
<path d="M0 0 C1.65 0 3.3 0 5 0 C5.33 0.66 5.66 1.32 6 2 C4.68 3.32 3.36 4.64 2 6 C1.34 4.02 0.68 2.04 0 0 Z " fill="#393937" transform="translate(370,110)"/>
<path d="M0 0 C1.32 0 2.64 0 4 0 C4.33 1.98 4.66 3.96 5 6 C3.68 5.67 2.36 5.34 1 5 C0.67 3.35 0.34 1.7 0 0 Z " fill="#2C2B2A" transform="translate(358,99)"/>
<path d="M0 0 C0.99 0.495 0.99 0.495 2 1 C1.01 1.495 1.01 1.495 0 2 C0 1.34 0 0.68 0 0 Z M-1 2 C-0.34 2.66 0.32 3.32 1 4 C0.625 6.125 0.625 6.125 0 8 C-0.99 8 -1.98 8 -3 8 C-3.33 6.68 -3.66 5.36 -4 4 C-3.01 3.34 -2.02 2.68 -1 2 Z " fill="#312F2D" transform="translate(138,99)"/>
<path d="M0 0 C0.66 0.33 1.32 0.66 2 1 C-0.16687491 3.27521866 -2.45620509 5.15794162 -5 7 C-5.99 6.34 -6.98 5.68 -8 5 C-6.71475739 4.13619741 -5.42157581 3.28419631 -4.125 2.4375 C-3.04605469 1.72400391 -3.04605469 1.72400391 -1.9453125 0.99609375 C-1.30335938 0.66738281 -0.66140625 0.33867188 0 0 Z " fill="#6B6C6C" transform="translate(159,84)"/>
<path d="M0 0 C0.66 0.33 1.32 0.66 2 1 C1.1875 2.9375 1.1875 2.9375 0 5 C-0.99 5.33 -1.98 5.66 -3 6 C-5.1875 4.5625 -5.1875 4.5625 -7 3 C-4.69631264 1.93347808 -2.35981813 0.93578995 0 0 Z " fill="#5A5A5A" transform="translate(181,73)"/>
<path d="M0 0 C0.33 1.32 0.66 2.64 1 4 C-0.32 4.33 -1.64 4.66 -3 5 C-3.33 4.01 -3.66 3.02 -4 2 C-4.66 1.67 -5.32 1.34 -6 1 C-4 0 -4 0 0 0 Z " fill="#323130" transform="translate(314,415)"/>
<path d="M0 0 C1.98 0.99 3.96 1.98 6 3 C5.38125 3.28875 4.7625 3.5775 4.125 3.875 C1.86674235 4.93720042 1.86674235 4.93720042 0 7 C-1.125 2.25 -1.125 2.25 0 0 Z " fill="#3D3B39" transform="translate(150,394)"/>
<path d="M0 0 C1 3 1 3 0.0625 5.1875 C-0.4634375 6.0846875 -0.4634375 6.0846875 -1 7 C-2.32 6.67 -3.64 6.34 -5 6 C-2.25 1.125 -2.25 1.125 0 0 Z " fill="#2C2B2A" transform="translate(425,288)"/>
<path d="M0 0 C1.65 0.33 3.3 0.66 5 1 C5 1.99 5 2.98 5 4 C2.69 4.33 0.38 4.66 -2 5 C-1.34 3.35 -0.68 1.7 0 0 Z " fill="#2C2B2A" transform="translate(183,73)"/>
<path d="M0 0 C0.66 0.33 1.32 0.66 2 1 C1.01 2.485 1.01 2.485 0 4 C-0.99 4 -1.98 4 -3 4 C-3 4.66 -3 5.32 -3 6 C-4.32 6.33 -5.64 6.66 -7 7 C-5.66667905 3.00003714 -3.5042173 2.16217663 0 0 Z " fill="#3A3836" transform="translate(351,393)"/>
<path d="M0 0 C2 3 2 3 1.625 5.1875 C1.41875 5.785625 1.2125 6.38375 1 7 C0.01 6.67 -0.98 6.34 -2 6 C-2 4.35 -2 2.7 -2 1 C-1.34 0.67 -0.68 0.34 0 0 Z " fill="#343435" transform="translate(110,356)"/>
<path d="M0 0 C0 1.32 0 2.64 0 4 C-1.98 4.33 -3.96 4.66 -6 5 C-5.625 3.0625 -5.625 3.0625 -5 1 C-3 0 -3 0 0 0 Z " fill="#2C2A29" transform="translate(156,89)"/>
<path d="M0 0 C0.66 0.33 1.32 0.66 2 1 C2.625 3.5625 2.625 3.5625 3 6 C0.5625 5.625 0.5625 5.625 -2 5 C-2.33 4.34 -2.66 3.68 -3 3 C-2.34 3 -1.68 3 -1 3 C-0.67 2.01 -0.34 1.02 0 0 Z " fill="#363532" transform="translate(318,74)"/>
<path d="M0 0 C2.97 0.495 2.97 0.495 6 1 C2.25 3 2.25 3 0 3 C0 3.66 0 4.32 0 5 C0.99 5.33 1.98 5.66 3 6 C0.03 5.505 0.03 5.505 -3 5 C-2.34 4.67 -1.68 4.34 -1 4 C-0.34786708 1.97536745 -0.34786708 1.97536745 0 0 Z " fill="#585755" transform="translate(197,418)"/>
<path d="M0 0 C0.33 0.99 0.66 1.98 1 3 C0.34 3 -0.32 3 -1 3 C-1.33 4.32 -1.66 5.64 -2 7 C-2.99 6.34 -3.98 5.68 -5 5 C-4 2 -4 2 -1.9375 0.8125 C-1.298125 0.544375 -0.65875 0.27625 0 0 Z " fill="#2C2B29" transform="translate(364,384)"/>
<path d="M0 0 C0.99 0.33 1.98 0.66 3 1 C3 4.96 3 8.92 3 13 C2.67 13 2.34 13 2 13 C1.66127487 11.58461283 1.32925376 10.16762037 1 8.75 C0.814375 7.96109375 0.62875 7.1721875 0.4375 6.359375 C0 4 0 4 0 0 Z " fill="#939393" transform="translate(70,276)"/>
<path d="M0 0 C1.68762851 1.6454378 3.3540349 3.31288577 5 5 C5 5.33 5 5.66 5 6 C3.35 6 1.7 6 0 6 C-1.24546405 3.50907189 -0.7767578 2.58919267 0 0 Z " fill="#E7E3DE" transform="translate(233,269)"/>
<path d="M0 0 C1.65 0 3.3 0 5 0 C4.34 1.32 3.68 2.64 3 4 C0.03 3.505 0.03 3.505 -3 3 C-2.01 2.67 -1.02 2.34 0 2 C0 1.34 0 0.68 0 0 Z " fill="#2C2A29" transform="translate(289,66)"/>
<path d="M0 0 C0.66 0 1.32 0 2 0 C2.33 1.65 2.66 3.3 3 5 C1.35 5 -0.3 5 -2 5 C-1.125 1.125 -1.125 1.125 0 0 Z " fill="#373736" transform="translate(183,413)"/>
<path d="M0 0 C0.99 0 1.98 0 3 0 C3.33 1.32 3.66 2.64 4 4 C3.01 4.33 2.02 4.66 1 5 C1 4.34 1 3.68 1 3 C0.01 2.67 -0.98 2.34 -2 2 C-1.34 1.34 -0.68 0.68 0 0 Z " fill="#2C2C2C" transform="translate(331,406)"/>
<path d="M0 0 C0.66 0 1.32 0 2 0 C1.6875 1.9375 1.6875 1.9375 1 4 C0.01 4.33 -0.98 4.66 -2 5 C-2.33 5.66 -2.66 6.32 -3 7 C-3 5.35 -3 3.7 -3 2 C-2.01 2 -1.02 2 0 2 C0 1.34 0 0.68 0 0 Z " fill="#666667" transform="translate(366,385)"/>
<path d="M0 0 C2.62187494 1.04874998 3.79371361 1.64931313 5.25 4.125 C5.4975 4.74375 5.745 5.3625 6 6 C4.68 6 3.36 6 2 6 C1.34 4.02 0.68 2.04 0 0 Z " fill="#E4E0DC" transform="translate(208,239)"/>
<path d="M0 0 C0.99 0.495 0.99 0.495 2 1 C1.67 1.66 1.34 2.32 1 3 C0.67 2.01 0.34 1.02 0 0 Z M-3 1 C-2.01 1.33 -1.02 1.66 0 2 C0 3.98 0 5.96 0 8 C-1.32 6.68 -2.64 5.36 -4 4 C-3.67 3.01 -3.34 2.02 -3 1 Z " fill="#3E3B3B" transform="translate(172,184)"/>
<path d="M0 0 C0.99 0.33 1.98 0.66 3 1 C1.25 6.75 1.25 6.75 -1 9 C-0.67 6.03 -0.34 3.06 0 0 Z " fill="#727374" transform="translate(409,329)"/>
<path d="M0 0 C0.99 0 1.98 0 3 0 C3 1.32 3 2.64 3 4 C2.01 4 1.02 4 0 4 C-0.33 4.66 -0.66 5.32 -1 6 C-1.042721 4.33388095 -1.04063832 2.66617115 -1 1 C-0.67 0.67 -0.34 0.34 0 0 Z " fill="#292928" transform="translate(425,211)"/>
<path d="M0 0 C2.64 0 5.28 0 8 0 C8.33 0.66 8.66 1.32 9 2 C6.21176345 3.0326802 5.1322726 3.04509293 2.25 2.0625 C1.5075 1.711875 0.765 1.36125 0 1 C0 0.67 0 0.34 0 0 Z " fill="#3A3837" transform="translate(327,201)"/>
<path d="M0 0 C2.15377564 2.62198774 3.40072174 4.64404172 4 8 C2.68 8 1.36 8 0 8 C0.33 6.35 0.66 4.7 1 3 C0.34 2.67 -0.32 2.34 -1 2 C-0.67 1.34 -0.34 0.68 0 0 Z " fill="#797979" transform="translate(409,156)"/>
<path d="M0 0 C0.66 0.33 1.32 0.66 2 1 C1.67 2.32 1.34 3.64 1 5 C-0.32 5 -1.64 5 -3 5 C-2 2 -2 2 0 0 Z " fill="#353332" transform="translate(325,77)"/>
</svg>
